<?xml version="1.0" standalone="no"?><!-- Generator: Gravit.io --><svg xmlns="http://www.w3.org/2000/svg" xmlns:xlink="http://www.w3.org/1999/xlink" style="isolation:isolate" viewBox="0 0 86 86" width="86" height="86"><defs><clipPath id="_clipPath_6GAWDhaNClIjsTlNh0OxgmuTPMbxDA21"><rect width="86" height="86"/></clipPath></defs><g clip-path="url(#_clipPath_6GAWDhaNClIjsTlNh0OxgmuTPMbxDA21)"><path d=" M 43 85.7 C 66.583 85.7 85.7 66.582 85.7 43 C 85.7 42.592 85.7 1.723 85.7 1.723 C 85.7 0.937 85.063 0.3 84.276 0.3 L 1.723 0.3 C 0.938 0.3 0.301 0.937 0.301 1.723 C 0.301 1.723 0.301 42.631 0.301 43 C 0.3 66.582 19.416 85.7 43 85.7 Z " fill="rgb(70,70,70)"/><linearGradient id="_lgradient_0" x1="50%" y1="0%" x2="49.999999999999986%" y2="100%"><stop offset="2.1739130434782608%" stop-opacity="1" style="stop-color:rgb(85,173,236)"/><stop offset="98.69565217391305%" stop-opacity="1" style="stop-color:rgb(236,247,255)"/></linearGradient><path d=" M 10.6 1.691 C 10.6 1.702 10.6 1.713 10.6 1.724 L 10.6 11.679 C 10.6 11.679 10.6 11.679 10.6 11.679 C 10.6 11.679 10.6 42.72 10.6 43 C 10.599 60.894 25.105 75.4 43 75.4 C 60.894 75.4 75.4 60.894 75.4 43 C 75.4 42.69 75.4 11.679 75.4 11.679 C 75.4 11.664 75.4 11.648 75.399 11.632 L 75.399 1.724 C 75.399 1.713 75.399 1.702 75.399 1.691 L 75.4 1.691 L 75.4 0.3 L 73.954 0.3 L 12.045 0.3 L 10.6 0.3 L 10.6 1.691 L 10.6 1.691 Z " fill="url(#_lgradient_0)"/><linearGradient id="_lgradient_1" x1="50%" y1="100%" x2="50.000000000000014%" y2="0%"><stop offset="0%" stop-opacity="1" style="stop-color:rgb(191,191,191)"/><stop offset="100%" stop-opacity="1" style="stop-color:rgb(235,235,235)"/></linearGradient><path d=" M 41.729 21.625 L 35.156 21.625 L 33.156 25.625 L 33.156 27.451 L 52.844 27.451 L 52.844 25.625 L 50.844 21.625 L 44.271 21.625 L 43.438 11.625 L 42.563 11.625 L 41.729 21.625 Z " fill="url(#_lgradient_1)"/><linearGradient id="_lgradient_2" x1="31.187363144555302%" y1="34.82443156203687%" x2="22.236657762915694%" y2="-3.589472618610606%"><stop offset="0%" stop-opacity="1" style="stop-color:rgb(70,70,70)"/><stop offset="100%" stop-opacity="1" style="stop-color:rgb(23,23,23)"/></linearGradient><path d=" M 29.937 54.125 L 31.687 56.5 L 19.062 69.375 L 14.313 63.75 L 29.937 54.125 Z " fill="url(#_lgradient_2)"/><linearGradient id="_lgradient_3" x1="31.187363144555302%" y1="34.82443156203687%" x2="22.236657762915694%" y2="-3.589472618610606%"><stop offset="0%" stop-opacity="1" style="stop-color:rgb(70,70,70)"/><stop offset="100%" stop-opacity="1" style="stop-color:rgb(23,23,23)"/></linearGradient><path d=" M 56.05 54.125 L 54.3 56.5 L 66.925 69.375 L 71.675 63.75 L 56.05 54.125 Z " fill="url(#_lgradient_3)"/><linearGradient id="_lgradient_4" x1="50%" y1="100%" x2="50.000000000000014%" y2="0%"><stop offset="0%" stop-opacity="1" style="stop-color:rgb(191,191,191)"/><stop offset="100%" stop-opacity="1" style="stop-color:rgb(235,235,235)"/></linearGradient><path d=" M 29.578 27.375 L 56.422 27.375 L 59.422 39.375 L 59.422 40.625 L 26.578 40.625 L 26.578 39.375 L 29.578 27.375 Z " fill="url(#_lgradient_4)"/><path d="M 30.73 29.666 L 55.05 29.666 L 56.182 34.45 L 56.182 34.45 L 29.818 34.45 L 29.818 34.166 L 30.73 29.666 Z" style="stroke:none;fill:#2E2E2E;stroke-miterlimit:10;"/><linearGradient id="_lgradient_5" x1="0%" y1="50%" x2="100%" y2="50%"><stop offset="1.7391304347826086%" stop-opacity="1" style="stop-color:rgb(145,145,145)"/><stop offset="50%" stop-opacity="1" style="stop-color:rgb(65,65,65)"/><stop offset="50%" stop-opacity="1" style="stop-color:rgb(45,45,45)"/><stop offset="100%" stop-opacity="1" style="stop-color:rgb(145,145,145)"/></linearGradient><path d=" M 19.119 39.294 C 24.2 53.473 33.945 59.893 42.952 66.791 L 43.013 66.837 L 43.075 66.791 C 52.081 59.893 61.842 53.458 66.907 39.294 C 58.224 39.817 49.772 40.11 41.582 40.11 C 33.837 40.11 26.34 39.864 19.119 39.294 Z " fill="url(#_lgradient_5)"/></g></svg>